<svg width="62" height="87" viewBox="0 0 62 87" fill="none" xmlns="http://www.w3.org/2000/svg">
<g filter="url(#filter0_d_16_199)">
<path d="M33.4509 51.1532C33.4509 53.7017 31.5356 55.8929 28.9886 55.9781C28.0873 56.0083 27.2174 56.0071 26.3165 55.9755C23.7619 55.8859 21.8357 53.6912 21.8357 51.1351L21.8357 22C21.8357 19.2386 24.0743 17 26.8357 17L28.4509 17C31.2123 17 33.4509 19.2386 33.4509 22L33.4509 51.1532Z" fill="#2C3D4F"/>
<path d="M32.9615 53.3465L33.4182 52.955L33.4182 48.9092L32.9615 48.9092L32.9615 48.485L33.2877 48.485L33.2877 48.3289L33.4509 48.3289L33.4509 19.121L32.3416 19.121L32.3416 17.5875C29.8097 16.9611 25.131 17.3265 23.1082 17.5875L23.1082 19.121L21.8357 19.121L21.8357 40.0021L21.8357 48.224L22.0315 48.485L22.3904 48.5503L22.3904 48.9092L21.9336 48.9092L21.9336 52.955L22.3904 53.3465C23.33 52.172 24.3915 53.9229 24.8048 54.9452C27.1278 55.7543 29.6227 55.2823 30.5797 54.9452C30.6776 54.3688 31.0626 53.1638 31.8195 52.955C32.5765 52.7462 32.8962 53.129 32.9615 53.3465Z" fill="url(#paint0_linear_16_199)"/>
<path d="M32.0154 46.2004L32.0154 45.6784L32.1459 45.6784L32.1459 46.331C32.3199 47.3533 32.6679 49.4175 32.6679 49.4958C32.6679 50.6704 31.7544 50.9966 30.645 51.127C26.1425 51.6817 24.2502 50.9965 23.1409 50.7355C22.2534 50.5267 22.8146 47.6251 23.2061 46.2004L23.2061 41.9915L23.3693 41.9915L23.3693 46.2004C26.1621 46.879 30.297 46.4832 32.0154 46.2004Z" fill="url(#paint1_linear_16_199)"/>
<rect x="23.4671" y="41.3397" width="1.17456" height="20.7506" rx="0.587282" transform="rotate(-180 23.4671 41.3397)" fill="#1A2E42"/>
<rect x="32.9289" y="41.3397" width="1.17456" height="20.7506" rx="0.587282" transform="rotate(-180 32.9289 41.3397)" fill="#1A2E42"/>
<path d="M22.4268 48.3867L22.0027 48.3867C22.0788 47.1578 22.2311 44.4389 22.2311 43.3948C22.2311 42.3508 22.6444 42.2203 22.851 42.2855C22.8727 43.1121 22.9032 44.987 22.851 45.8745C22.7988 46.7619 22.5465 47.9191 22.4268 48.3867Z" fill="#1A2E42"/>
<path d="M32.7657 48.3867L33.1898 48.3867C33.1137 47.1578 32.9615 44.4389 32.9615 43.3948C32.9615 42.3508 32.5482 42.2203 32.3416 42.2855C32.3198 43.1121 32.2894 44.987 32.3416 45.8745C32.3938 46.7619 32.6461 47.9191 32.7657 48.3867Z" fill="#1A2E42"/>
<path d="M23.8249 20.0928C25.6516 19.9249 29.3446 20.0273 31.3427 20.1164C31.5319 20.1249 31.689 19.974 31.689 19.7846C31.689 19.6124 31.5571 19.4688 31.3854 19.4549C28.4406 19.2174 26.6692 19.2492 23.7588 19.4587C23.5943 19.4706 23.4671 19.6076 23.4671 19.7725C23.4671 19.9631 23.6351 20.1103 23.8249 20.0928Z" fill="#1A2E42"/>
<path d="M29.9925 55.1075C30.4542 53.9568 31.671 51.9235 32.8443 52.9957C33.5775 53.9704 31.4591 55.1075 29.9925 55.1075Z" fill="white"/>
<path d="M25.2942 55.1075C24.8325 53.9568 23.6157 51.9235 22.4424 52.9957C21.7091 53.9704 23.8276 55.1075 25.2942 55.1075Z" fill="white"/>
<path d="M25.5388 54.709C27.1208 54.9983 28.133 54.9963 29.7048 54.7159C29.8365 54.6924 29.9339 54.8381 29.8603 54.9498C29.8361 54.9865 29.7966 55.0109 29.753 55.0165C28.1494 55.2205 27.192 55.2272 25.4893 55.018C25.4374 55.0116 25.3917 54.9794 25.3685 54.9325C25.3114 54.817 25.412 54.6859 25.5388 54.709Z" fill="#2C3D4F"/>
<rect x="28.0349" y="55.2383" width="0.913549" height="0.391521" rx="0.195761" transform="rotate(-180 28.0349 55.2383)" fill="#FFFFFE"/>
<path d="M34.2924 48.0272L33.0526 48.4187C32.9873 48.5275 32.9416 48.7711 33.2809 48.8755C33.7051 49.006 34.1292 48.7776 34.2924 48.5819C34.4229 48.4252 34.3468 48.1468 34.2924 48.0272Z" fill="#2C3D4F"/>
<path d="M21.0721 48.0272L22.3119 48.4187C22.3771 48.5275 22.4228 48.7711 22.0835 48.8755C21.6594 49.006 21.2352 48.7776 21.0721 48.5819C20.9416 48.4252 21.0177 48.1468 21.0721 48.0272Z" fill="#2C3D4F"/>
</g>
<defs>
<filter id="filter0_d_16_199" x="0" y="0" width="61.3644" height="87" filterUnits="userSpaceOnUse" color-interpolation-filters="sRGB">
<feFlood flood-opacity="0" result="BackgroundImageFix"/>
<feColorMatrix in="SourceAlpha" type="matrix" values="0 0 0 0 0 0 0 0 0 0 0 0 0 0 0 0 0 0 127 0" result="hardAlpha"/>
<feOffset dx="3" dy="7"/>
<feGaussianBlur stdDeviation="12"/>
<feComposite in2="hardAlpha" operator="out"/>
<feColorMatrix type="matrix" values="0 0 0 0 1 0 0 0 0 0.890923 0 0 0 0 0.451667 0 0 0 0.82 0"/>
<feBlend mode="normal" in2="BackgroundImageFix" result="effect1_dropShadow_16_199"/>
<feBlend mode="normal" in="SourceGraphic" in2="effect1_dropShadow_16_199" result="shape"/>
</filter>
<linearGradient id="paint0_linear_16_199" x1="39.1149" y1="28.7132" x2="18.1163" y2="28.7132" gradientUnits="userSpaceOnUse">
<stop stop-color="#F3CF3D"/>
<stop offset="0.56291" stop-color="#FFDA43"/>
<stop offset="1" stop-color="#F3CF3D"/>
</linearGradient>
<linearGradient id="paint1_linear_16_199" x1="27.6434" y1="52.3017" x2="27.6677" y2="41.9915" gradientUnits="userSpaceOnUse">
<stop stop-color="#091827"/>
<stop offset="0.503125" stop-color="#172B40"/>
<stop offset="1" stop-color="#2C3D4F"/>
</linearGradient>
</defs>
</svg>
